<mxfile host="app.diagrams.net" agent="Mozilla/5.0 (Windows NT 10.0; Win64; x64) AppleWebKit/537.36 (KHTML, like Gecko) Chrome/131.0.0.0 Safari/537.36" version="25.0.3">
  <diagram name="Page-1" id="urudLJXBXPz66qKmue3M">
    <mxGraphModel dx="2314" dy="1098" grid="1" gridSize="10" guides="1" tooltips="1" connect="1" arrows="1" fold="1" page="1" pageScale="1" pageWidth="827" pageHeight="1169" math="0" shadow="0">
      <root>
        <mxCell id="0" />
        <mxCell id="1" parent="0" />
        <mxCell id="RlulPBKQhHApN7nZ32I0-9" value="" style="rounded=1;whiteSpace=wrap;html=1;" vertex="1" parent="1">
          <mxGeometry x="645" y="578" width="390" height="130" as="geometry" />
        </mxCell>
        <mxCell id="RlulPBKQhHApN7nZ32I0-10" value="" style="rounded=1;whiteSpace=wrap;html=1;" vertex="1" parent="1">
          <mxGeometry x="524.8000000000001" y="290" width="203" height="100" as="geometry" />
        </mxCell>
        <mxCell id="RlulPBKQhHApN7nZ32I0-11" value="" style="rounded=1;whiteSpace=wrap;html=1;" vertex="1" parent="1">
          <mxGeometry x="510" y="876.4" width="240" height="140" as="geometry" />
        </mxCell>
        <mxCell id="RlulPBKQhHApN7nZ32I0-1" value="" style="image;points=[];aspect=fixed;html=1;align=center;shadow=0;dashed=0;image=img/lib/allied_telesis/computer_and_terminals/Personal_Computer.svg;" vertex="1" parent="1">
          <mxGeometry x="530" y="935.4999999999999" width="45.6" height="61.800000000000004" as="geometry" />
        </mxCell>
        <mxCell id="RlulPBKQhHApN7nZ32I0-3" value="" style="image;points=[];aspect=fixed;html=1;align=center;shadow=0;dashed=0;image=img/lib/allied_telesis/computer_and_terminals/Personal_Computer.svg;" vertex="1" parent="1">
          <mxGeometry x="682.2" y="935.5" width="45.6" height="61.800000000000004" as="geometry" />
        </mxCell>
        <mxCell id="RlulPBKQhHApN7nZ32I0-8" value="" style="rounded=1;whiteSpace=wrap;html=1;" vertex="1" parent="1">
          <mxGeometry x="225" y="578" width="390" height="130" as="geometry" />
        </mxCell>
        <mxCell id="RlulPBKQhHApN7nZ32I0-12" value="" style="verticalLabelPosition=bottom;sketch=0;aspect=fixed;html=1;verticalAlign=top;strokeColor=none;align=center;outlineConnect=0;shape=mxgraph.citrix.directory_server;" vertex="1" parent="1">
          <mxGeometry x="255" y="589.75" width="65" height="88.5" as="geometry" />
        </mxCell>
        <mxCell id="RlulPBKQhHApN7nZ32I0-13" value="" style="verticalLabelPosition=bottom;sketch=0;aspect=fixed;html=1;verticalAlign=top;strokeColor=none;align=center;outlineConnect=0;shape=mxgraph.citrix.dhcp_server;" vertex="1" parent="1">
          <mxGeometry x="332" y="593" width="76" height="90" as="geometry" />
        </mxCell>
        <mxCell id="RlulPBKQhHApN7nZ32I0-14" value="" style="verticalLabelPosition=bottom;sketch=0;aspect=fixed;html=1;verticalAlign=top;strokeColor=none;align=center;outlineConnect=0;shape=mxgraph.citrix.dns_server;" vertex="1" parent="1">
          <mxGeometry x="419" y="593" width="76.5" height="92.5" as="geometry" />
        </mxCell>
        <mxCell id="RlulPBKQhHApN7nZ32I0-15" value="" style="image;html=1;image=img/lib/clip_art/general/Earth_globe_128x128.png" vertex="1" parent="1">
          <mxGeometry x="560" y="20" width="140" height="160" as="geometry" />
        </mxCell>
        <mxCell id="RlulPBKQhHApN7nZ32I0-16" value="" style="verticalLabelPosition=bottom;sketch=0;aspect=fixed;html=1;verticalAlign=top;strokeColor=none;align=center;outlineConnect=0;shape=mxgraph.citrix.users;" vertex="1" parent="1">
          <mxGeometry x="601" y="956.4" width="64.5" height="55" as="geometry" />
        </mxCell>
        <mxCell id="RlulPBKQhHApN7nZ32I0-6" value="" style="verticalLabelPosition=bottom;sketch=0;aspect=fixed;html=1;verticalAlign=top;strokeColor=none;align=center;outlineConnect=0;shape=mxgraph.citrix.router;" vertex="1" parent="1">
          <mxGeometry x="557" y="316.07" width="65.94" height="43.75" as="geometry" />
        </mxCell>
        <mxCell id="RlulPBKQhHApN7nZ32I0-7" value="" style="verticalLabelPosition=bottom;sketch=0;aspect=fixed;html=1;verticalAlign=top;strokeColor=none;align=center;outlineConnect=0;shape=mxgraph.citrix.firewall;" vertex="1" parent="1">
          <mxGeometry x="650.64" y="312.12" width="44.96" height="55.75" as="geometry" />
        </mxCell>
        <mxCell id="RlulPBKQhHApN7nZ32I0-17" value="" style="verticalLabelPosition=bottom;sketch=0;aspect=fixed;html=1;verticalAlign=top;strokeColor=none;align=center;outlineConnect=0;shape=mxgraph.citrix.file_server;" vertex="1" parent="1">
          <mxGeometry x="512" y="593" width="71" height="97" as="geometry" />
        </mxCell>
        <mxCell id="RlulPBKQhHApN7nZ32I0-18" value="Script" style="html=1;whiteSpace=wrap;strokeColor=none;fillColor=#0079D6;labelPosition=center;verticalLabelPosition=middle;verticalAlign=top;align=center;fontSize=12;outlineConnect=0;spacingTop=-6;fontColor=#FFFFFF;sketch=0;shape=mxgraph.sitemap.script;" vertex="1" parent="1">
          <mxGeometry x="734.1" y="613" width="80" height="60" as="geometry" />
        </mxCell>
        <mxCell id="RlulPBKQhHApN7nZ32I0-20" value="" style="shape=image;html=1;verticalAlign=top;verticalLabelPosition=bottom;labelBackgroundColor=#ffffff;imageAspect=0;aspect=fixed;image=https://cdn1.iconfinder.com/data/icons/Vista-Inspirate_1.0/128x128/apps/debian.png" vertex="1" parent="1">
          <mxGeometry x="925" y="490" width="88" height="88" as="geometry" />
        </mxCell>
        <mxCell id="RlulPBKQhHApN7nZ32I0-21" value="" style="shape=image;html=1;verticalAlign=top;verticalLabelPosition=bottom;labelBackgroundColor=#ffffff;imageAspect=0;aspect=fixed;image=https://cdn1.iconfinder.com/data/icons/Vista-Inspirate_1.0/128x128/apps/debian.png" vertex="1" parent="1">
          <mxGeometry x="463.33" y="312.11999999999995" width="59.84" height="59.84" as="geometry" />
        </mxCell>
        <mxCell id="RlulPBKQhHApN7nZ32I0-22" value="" style="shadow=0;dashed=0;html=1;strokeColor=none;fillColor=#EF8F21;labelPosition=center;verticalLabelPosition=bottom;verticalAlign=top;align=center;outlineConnect=0;shape=mxgraph.veeam.ms_windows;" vertex="1" parent="1">
          <mxGeometry x="536.3" y="513.2" width="57.4" height="64.8" as="geometry" />
        </mxCell>
        <mxCell id="RlulPBKQhHApN7nZ32I0-24" value="" style="shape=image;html=1;verticalAlign=top;verticalLabelPosition=bottom;labelBackgroundColor=#ffffff;imageAspect=0;aspect=fixed;image=https://cdn1.iconfinder.com/data/icons/operating-system-flat-1/30/ubuntu-128.png" vertex="1" parent="1">
          <mxGeometry x="622.9" y="870" width="65.5" height="65.5" as="geometry" />
        </mxCell>
        <mxCell id="RlulPBKQhHApN7nZ32I0-25" value="" style="shadow=0;dashed=0;html=1;strokeColor=none;fillColor=#EF8F21;labelPosition=center;verticalLabelPosition=bottom;verticalAlign=top;align=center;outlineConnect=0;shape=mxgraph.veeam.ms_windows;" vertex="1" parent="1">
          <mxGeometry x="578.0999999999999" y="876.4" width="44.8" height="44.8" as="geometry" />
        </mxCell>
        <mxCell id="RlulPBKQhHApN7nZ32I0-27" value="" style="verticalLabelPosition=bottom;sketch=0;aspect=fixed;html=1;verticalAlign=top;strokeColor=none;align=center;outlineConnect=0;shape=mxgraph.citrix.role_security;fillColor=#CCCCCC;gradientColor=#000000;gradientDirection=south;" vertex="1" parent="1">
          <mxGeometry x="875" y="605.25" width="68" height="68" as="geometry" />
        </mxCell>
      </root>
    </mxGraphModel>
  </diagram>
</mxfile>
